HIERARCHY
ROOT Hips
{
	OFFSET -0.001795 -0.223333 0.028219
	CHANNELS 6 Xposition Yposition Zposition Zrotation Yrotation Xrotation 
	JOINT LeftUpLeg
	{
		OFFSET 0.069520 -0.091406 -0.006815
		CHANNELS 3 Zrotation Yrotation Xrotation
		JOINT LeftLeg
		{
			OFFSET 0.034277 -0.375199 -0.004496
			CHANNELS 3 Zrotation Yrotation Xrotation
			JOINT LeftFoot
			{
				OFFSET -0.013596 -0.397961 -0.043693
				CHANNELS 3 Zrotation Yrotation Xrotation
				JOINT LeftToe
				{
					OFFSET 0.026358 -0.055791 0.119288
					CHANNELS 3 Zrotation Yrotation Xrotation
					End Site
					{
						OFFSET 0.000000 0.000000 0.000000
					}
				}
			}
		}
	}
	JOINT RightUpLeg
	{
		OFFSET -0.067670 -0.090522 -0.004320
		CHANNELS 3 Zrotation Yrotation Xrotation
		JOINT RightLeg
		{
			OFFSET -0.038290 -0.382569 -0.008850
			CHANNELS 3 Zrotation Yrotation Xrotation
			JOINT RightFoot
			{
				OFFSET 0.015774 -0.398415 -0.042312
				CHANNELS 3 Zrotation Yrotation Xrotation
				JOINT RightToe
				{
					OFFSET -0.025372 -0.048144 0.123348
					CHANNELS 3 Zrotation Yrotation Xrotation
					End Site
					{
						OFFSET 0.000000 0.000000 0.000000
					}
				}
			}
		}
	}
	JOINT Spine
	{
		OFFSET -0.002533 0.108963 -0.026696
		CHANNELS 3 Zrotation Yrotation Xrotation
		JOINT Spine1
		{
			OFFSET 0.005487 0.135180 0.001092
			CHANNELS 3 Zrotation Yrotation Xrotation
			JOINT Spine2
			{
				OFFSET 0.001457 0.052922 0.025425
				CHANNELS 3 Zrotation Yrotation Xrotation
				JOINT Neck
				{
					OFFSET -0.002778 0.213870 -0.042857
					CHANNELS 3 Zrotation Yrotation Xrotation
					JOINT Head
					{
						OFFSET 0.005152 0.064970 0.051349
						CHANNELS 3 Zrotation Yrotation Xrotation
						End Site
						{
							OFFSET 0.000000 0.000000 0.000000
						}
					}
				}
				JOINT LeftShoulder
				{
					OFFSET 0.078845 0.121749 -0.034090
					CHANNELS 3 Zrotation Yrotation Xrotation
					JOINT LeftArm
					{
						OFFSET 0.090977 0.030469 -0.008868
						CHANNELS 3 Zrotation Yrotation Xrotation
						JOINT LeftForeArm
						{
							OFFSET 0.259612 -0.012772 -0.027456
							CHANNELS 3 Zrotation Yrotation Xrotation
							JOINT LeftHand
							{
								OFFSET 0.249234 0.008986 -0.001171
								CHANNELS 3 Zrotation Yrotation Xrotation
								End Site
								{
									OFFSET 0.000000 0.000000 0.000000
								}
							}
						}
					}
				}
				JOINT RightShoulder
				{
					OFFSET -0.081759 0.118833 -0.038615
					CHANNELS 3 Zrotation Yrotation Xrotation
					JOINT RightArm
					{
						OFFSET -0.096012 0.032551 -0.009143
						CHANNELS 3 Zrotation Yrotation Xrotation
						JOINT RightForeArm
						{
							OFFSET -0.253742 -0.013329 -0.021401
							CHANNELS 3 Zrotation Yrotation Xrotation
							JOINT RightHand
							{
								OFFSET -0.255298 0.007772 -0.005559
								CHANNELS 3 Zrotation Yrotation Xrotation
								End Site
								{
									OFFSET 0.000000 0.000000 0.000000
								}
							}
						}
					}
				}
			}
		}
	}
}
MOTION
Frames: 18
Frame Time: 0.050000
0.000000 0.961522 0.000000 -1.519182 11.668209 -1.857493 1.623188 0.391985 7.909934 -2.161274 0.235855 -4.322841 0.641916 8.884482 17.742401 0.000000 0.000000 0.000000 1.713011 -0.510284 3.954493 0.916824 -0.091122 1.282307 -1.733424 -6.942420 13.303210 0.000000 0.000000 0.000000 -0.597327 -0.483573 10.827961 3.923988 -0.065263 -24.507886 -0.535620 -1.287243 27.341691 1.473936 0.866674 -16.571713 0.000000 0.000000 0.000000 -29.168790 -1.810470 -3.249290 -46.635420 -2.557422 -6.152408 -9.466128 -21.934977 2.658540 0.000000 0.000000 0.000000 21.203441 5.115457 3.722301 51.485494 9.122747 -4.232994 0.522693 24.378152 1.408223 0.000000 0.000000 0.000000 
0.001266 0.960437 0.001089 -1.493484 12.349716 -1.492463 1.562712 0.373285 7.648812 -2.139981 0.230318 -4.365520 0.458685 8.465849 16.927722 0.000000 0.000000 0.000000 1.396179 -0.275762 2.217911 2.088069 -0.245581 4.057766 -2.944970 -9.063574 12.318407 0.000000 0.000000 0.000000 -0.230225 -0.510492 10.631523 3.797914 0.016930 -25.325871 -1.431385 -1.168239 28.222663 1.974900 0.546926 -16.178262 0.000000 0.000000 0.000000 -28.518600 -1.482069 -3.561373 -47.707662 -2.601678 -6.333556 -9.323385 -22.400641 2.680836 0.000000 0.000000 0.000000 22.368287 5.208099 4.088005 51.866044 8.682914 -4.601318 -0.534209 24.711746 1.263216 0.000000 0.000000 0.000000 
0.002535 0.959543 0.003222 -1.309727 11.926072 -1.175796 1.465722 0.351777 6.837414 -2.465460 0.238348 -2.927196 0.648285 8.422945 16.115620 0.000000 0.000000 0.000000 1.415725 -0.058396 0.457435 2.253067 -0.272821 6.676602 -3.928788 -10.999338 11.984203 0.000000 0.000000 0.000000 -0.660716 -0.490442 11.076937 3.839186 0.028371 -25.942066 -1.408314 -1.300094 29.223036 1.424121 0.878992 -16.181326 0.000000 0.000000 0.000000 -28.748979 -1.427345 -3.406058 -47.854737 -3.553802 -6.159394 -9.029844 -22.210624 2.638605 0.000000 0.000000 0.000000 21.919275 5.079688 3.875587 51.469505 8.413026 -4.748926 1.620444 25.173161 1.700392 0.000000 0.000000 0.000000 
0.003584 0.958282 0.006854 -1.211462 11.407632 -1.440615 0.819380 0.464719 7.656994 -1.548259 0.177857 -2.231875 0.617432 7.401256 13.390605 0.000000 0.000000 0.000000 1.434021 0.185595 -1.609528 3.354076 -0.586733 11.852414 -5.467251 -14.037818 9.985535 0.000000 0.000000 0.000000 -0.896364 -0.488304 11.509562 4.274434 -0.098543 -25.741804 -1.514868 -1.212620 29.666535 1.731471 0.628862 -16.284979 0.000000 0.000000 0.000000 -29.934545 -0.759169 -3.935346 -47.638458 -3.466473 -6.180527 -9.819591 -22.859166 2.900335 0.000000 0.000000 0.000000 21.613307 5.137158 3.823809 51.523720 8.464827 -4.750813 1.668868 24.883847 1.683117 0.000000 0.000000 0.000000 
0.004367 0.957242 0.012691 -1.212386 11.254385 -1.765824 1.190032 0.456738 8.163215 -2.139072 0.199862 -1.048023 0.602861 6.662262 11.489326 0.000000 0.000000 0.000000 0.833003 0.576344 -5.398454 4.742301 -1.301056 19.490823 -6.112661 -15.302371 11.161239 0.000000 0.000000 0.000000 -1.604461 -0.490083 12.886360 5.582008 -0.426085 -25.543973 -2.544856 -1.133215 29.283625 2.437781 0.022631 -15.572629 0.000000 0.000000 0.000000 -30.252247 -0.227488 -4.326532 -47.278423 -3.731140 -5.981600 -9.814441 -23.578730 2.994212 0.000000 0.000000 0.000000 21.769092 4.937375 3.672936 51.364452 8.524163 -4.674059 1.739095 24.811811 1.688645 0.000000 0.000000 0.000000 
0.004605 0.956582 0.021518 -1.445063 11.441826 -2.413754 1.786968 0.448976 9.499824 -2.365214 0.206105 -0.349317 0.296220 5.369712 9.463706 0.000000 0.000000 0.000000 0.473487 0.920073 -9.323868 5.836672 -2.335980 27.794752 -6.428320 -15.856340 14.728654 0.000000 0.000000 0.000000 -2.343584 -0.469342 13.898216 6.042527 -0.553997 -25.489813 -2.129840 -2.712490 29.962482 1.517107 0.579981 -16.981894 0.000000 0.000000 0.000000 -31.130774 -0.135971 -3.857169 -46.338064 -4.482095 -5.831695 -11.615332 -23.542763 3.434830 0.000000 0.000000 0.000000 20.968287 4.562023 2.994924 51.514940 8.128387 -4.808613 2.393872 24.831970 1.788496 0.000000 0.000000 0.000000 
0.004098 0.956957 0.034322 -2.009805 10.574285 -2.895740 2.643019 0.438312 11.511244 -2.633508 0.241205 -1.003000 0.436323 5.269606 8.875538 0.000000 0.000000 0.000000 -0.444082 1.158574 -13.415789 8.235218 -3.832759 33.371534 -6.711080 -16.503669 22.431589 0.000000 0.000000 0.000000 -2.379531 -0.510304 14.922661 6.998132 -0.797638 -25.786463 -3.185536 -3.474625 30.390937 2.209742 -0.115471 -17.412420 0.000000 0.000000 0.000000 -31.474391 0.252228 -3.544448 -45.219483 -4.782648 -5.801933 -11.821383 -23.433075 3.514586 0.000000 0.000000 0.000000 21.663160 4.222061 2.430637 51.062789 7.440829 -5.041447 3.571040 25.615781 2.066877 0.000000 0.000000 0.000000 
0.002474 0.956844 0.051534 -2.676864 8.679392 -3.439700 3.271138 0.483380 13.789147 -2.747979 0.267935 -1.629435 1.422997 6.819568 9.063245 0.000000 0.000000 0.000000 -1.199228 1.330967 -16.918565 10.201283 -4.476262 33.998004 -8.596216 -19.290238 32.412780 0.000000 0.000000 0.000000 -2.444998 -0.518757 15.853354 7.830656 -1.017080 -26.103273 -3.012148 -3.773029 30.835737 0.455149 1.002751 -18.737955 0.000000 0.000000 0.000000 -31.686813 0.488954 -3.006283 -45.100839 -5.582400 -5.777983 -12.565489 -23.688479 3.794081 0.000000 0.000000 0.000000 20.254795 3.769186 1.720136 52.373205 6.657370 -5.379102 3.825072 26.362472 2.168914 0.000000 0.000000 0.000000 
-0.000629 0.955170 0.072567 -3.182884 6.823900 -3.661598 3.500553 0.605350 16.433455 -2.584289 0.281714 -3.219870 2.763056 9.093492 9.766652 0.000000 0.000000 0.000000 -1.167140 1.502705 -18.628187 10.441848 -3.766078 29.639883 -10.602073 -21.891356 32.028328 0.000000 0.000000 0.000000 -2.131036 -0.548172 16.337121 8.503927 -1.255574 -25.626570 -3.498032 -3.855535 30.437016 0.302913 1.006831 -20.140956 0.000000 0.000000 0.000000 -31.845752 0.723183 -2.648495 -44.849609 -5.902666 -5.760087 -12.503613 -24.080172 3.895165 0.000000 0.000000 0.000000 20.199474 3.624365 1.263528 52.612609 6.152648 -5.491985 4.155728 25.969532 2.144550 0.000000 0.000000 0.000000 
-0.005309 0.952713 0.096920 -3.497892 5.297514 -3.594299 3.728910 0.721865 18.818007 -2.316557 0.286949 -4.620214 3.599445 10.606810 10.844107 0.000000 0.000000 0.000000 -1.111184 1.723925 -20.887550 9.616848 -2.708822 23.783620 -9.606414 -21.389571 20.270471 0.000000 0.000000 0.000000 -1.663246 -0.620543 17.200142 8.651914 -1.232375 -26.565376 -3.812949 -4.475366 30.481714 -0.214678 1.107567 -20.366208 0.000000 0.000000 0.000000 -31.580018 1.227854 -2.264098 -45.008153 -6.573482 -5.768113 -12.833563 -24.804818 4.180121 0.000000 0.000000 0.000000 19.670932 3.154882 0.575542 53.481111 4.763853 -6.068670 4.239629 26.602228 2.168290 0.000000 0.000000 0.000000 
-0.011822 0.947959 0.124902 -3.612324 3.679238 -3.176498 3.690878 0.894963 20.534726 -2.064801 0.288548 -5.226698 4.925092 12.819991 12.085981 0.000000 0.000000 0.000000 -1.058462 1.940981 -22.716015 8.597272 -1.818868 17.367693 -9.732710 -21.858765 18.784064 0.000000 0.000000 0.000000 -1.161137 -0.673967 17.660920 8.831355 -1.231209 -27.138751 -4.111200 -4.625988 30.316443 -0.244277 1.020804 -21.997324 0.000000 0.000000 0.000000 -31.201397 1.785056 -2.145751 -45.156317 -7.101692 -5.712115 -12.849838 -25.735005 4.409904 0.000000 0.000000 0.000000 20.453297 2.835801 0.007600 53.125723 3.833792 -6.338211 3.433473 26.099426 1.883253 0.000000 0.000000 0.000000 
-0.020296 0.941740 0.156973 -3.134723 1.978997 -2.557156 3.103772 1.231063 22.344071 -1.061444 0.232465 -4.971485 4.639664 12.264281 12.024678 0.000000 0.000000 0.000000 -0.436293 2.210803 -23.535146 7.253666 -1.186552 12.837491 -9.225784 -21.221167 21.259700 0.000000 0.000000 0.000000 -1.183361 -0.641696 18.249271 9.720186 -1.315708 -28.306671 -5.248126 -4.558220 30.319316 0.242859 0.587984 -22.975965 0.000000 0.000000 0.000000 -30.880027 1.952043 -1.798921 -45.288031 -7.107541 -5.844558 -12.881358 -26.948433 4.703977 0.000000 0.000000 0.000000 20.939510 3.056847 -0.227310 53.707985 2.985843 -6.681086 1.985725 25.036572 1.452763 0.000000 0.000000 0.000000 
-0.031211 0.935698 0.195159 -2.972202 1.682979 -2.817722 3.393698 1.274106 23.825971 -0.355515 0.103403 -2.105787 4.320417 11.689508 11.697303 0.000000 0.000000 0.000000 0.507076 2.427407 -23.733428 7.084416 -1.175796 14.149843 -9.268969 -21.211462 24.597804 0.000000 0.000000 0.000000 -0.814680 -0.699509 18.445615 8.989926 -1.267336 -27.326127 -4.933369 -5.984369 29.200144 0.480034 0.188188 -23.185571 0.000000 0.000000 0.000000 -30.712160 1.799820 -1.122138 -45.536451 -8.907005 -5.301937 -12.722973 -26.962903 4.715145 0.000000 0.000000 0.000000 21.388495 3.392030 -0.594453 54.098331 1.603615 -7.094774 0.171753 24.310189 0.967016 0.000000 0.000000 0.000000 
-0.044501 0.933032 0.240697 -2.309400 0.365356 -2.781031 3.235045 1.498078 24.821707 -0.559679 0.024373 1.255321 4.501323 12.284087 13.934383 0.000000 0.000000 0.000000 0.687786 2.498351 -23.495567 8.246652 -1.505808 17.405014 -10.221613 -22.672635 25.734566 0.000000 0.000000 0.000000 -1.183196 -0.556061 17.348245 10.150103 -1.643169 -26.373092 -5.919984 -6.722946 28.479841 0.030209 0.236375 -23.176815 0.000000 0.000000 0.000000 -31.386364 2.594033 -1.171410 -44.827054 -8.554777 -5.452231 -12.215464 -28.091100 4.844720 0.000000 0.000000 0.000000 22.292533 4.024958 -0.863593 52.962870 0.147680 -7.328455 -0.286668 24.335324 0.779419 0.000000 0.000000 0.000000 
-0.059802 0.937272 0.291327 -2.397828 -1.558377 -2.440450 4.703077 1.282884 23.783117 -1.776664 0.076098 7.222495 3.396088 11.403160 19.389597 0.000000 0.000000 0.000000 2.734389 2.811746 -22.285940 7.467791 -1.253139 20.547865 -9.110931 -21.542124 23.741680 0.000000 0.000000 0.000000 0.214568 -0.635127 15.160426 10.662329 -1.775953 -26.360205 -6.806530 -6.555662 28.578420 -0.602880 0.416442 -21.273841 0.000000 0.000000 0.000000 -31.498447 3.126120 -1.102718 -44.606343 -7.934484 -5.815290 -13.148837 -28.279350 5.187784 0.000000 0.000000 0.000000 21.342577 3.951072 -1.095142 53.057180 -0.204907 -7.501113 0.395212 22.606951 0.798640 0.000000 0.000000 0.000000 
-0.075806 0.947062 0.341778 -2.158644 -3.610730 -3.127401 6.026283 0.964678 19.676844 -2.793276 0.289121 20.208204 0.959616 9.063887 25.673386 0.000000 0.000000 0.000000 4.693138 2.540025 -17.862033 6.652254 -0.874888 21.104448 -8.351173 -20.740217 19.757115 0.000000 0.000000 0.000000 1.275521 -0.698845 14.356590 10.421212 -1.850337 -25.628418 -6.205732 -6.754080 27.948628 -0.985248 0.457667 -21.580760 0.000000 0.000000 0.000000 -32.520603 2.652511 -0.206411 -44.431616 -7.395652 -6.143241 -13.360563 -28.459034 5.315519 0.000000 0.000000 0.000000 19.191009 4.535175 -0.906109 53.331657 -0.629740 -7.696647 1.953535 22.817891 1.010286 0.000000 0.000000 0.000000 
-0.091700 0.956283 0.388292 -2.182303 -6.983332 -4.071020 6.506584 0.699849 12.633449 -3.195979 1.129674 35.074508 -0.626031 7.631228 30.053682 0.000000 0.000000 0.000000 6.697354 1.868930 -12.187919 5.192391 -0.270458 19.309686 -6.246478 -17.794603 17.175264 0.000000 0.000000 0.000000 2.315567 -0.783015 14.844191 9.816391 -1.600109 -26.904515 -5.989309 -4.926946 29.085776 -0.196239 -0.160575 -20.227610 0.000000 0.000000 0.000000 -32.440364 2.515498 0.183754 -44.338087 -7.079828 -6.438489 -14.137591 -29.050274 5.698965 0.000000 0.000000 0.000000 18.837299 4.227152 -1.098599 52.825196 -0.481027 -7.681805 4.179665 23.413335 1.439048 0.000000 0.000000 0.000000 
-0.107361 0.964859 0.431450 -1.470426 -11.549842 -5.228848 5.393603 0.518741 6.171988 -3.043596 2.709429 44.456158 0.895127 8.195121 25.785229 0.000000 0.000000 0.000000 7.582112 0.792025 -5.730910 3.155948 0.294391 15.812586 -3.421651 -13.526614 15.409241 0.000000 0.000000 0.000000 1.454504 -0.588880 15.092197 10.288378 -1.963164 -25.461250 -5.248401 -2.512204 28.765601 0.137336 -0.420522 -19.400870 0.000000 0.000000 0.000000 -32.521929 2.484143 0.399309 -45.039502 -7.242197 -6.496343 -13.335335 -29.579417 5.628339 0.000000 0.000000 0.000000 19.241897 5.269873 -0.753524 51.489848 0.108369 -7.152276 5.417757 26.297830 1.846364 0.000000 0.000000 0.000000 
